<svg xmlns="http://www.w3.org/2000/svg" xmlns:xlink="http://www.w3.org/1999/xlink" width="81" height="75" viewBox="0 0 81 75"><svg width="34" height="24" viewBox="-5 -5 34 24" id="arrow" y="0"><title>arrow</title><g transform="rotate(-90 7 6.143)" stroke="#FFF" stroke-width="1.5" fill="none" fill-rule="evenodd" stroke-linecap="square"><path d="M11.736 16.55l-5.14 5.14M.264 16.55l5.14 5.14M6.429 21.857V.31"></path></g></svg><svg width="81" height="51" viewBox="-5 -5 81 51" id="flourish" y="24"><title>Page 1 Copy</title><defs><path id="a" d="M0 0h71v41H0z"></path></defs><g fill="none" fill-rule="evenodd"><mask id="b" fill="#fff"><use xlink:href="#a"></use></mask><path d="M30.398 5.462c2.442-1.38 5.086-2.442 7.933-3.182 2.846-.74 5.671-1.11 8.477-1.11 4.44 0 8.518.9 12.232 2.7 3.713 1.803 6.635 4.264 8.765 7.385C69.935 14.378 71 17.818 71 21.581c0 1.961-.278 3.837-.832 5.628a18.349 18.349 0 0 1-2.453 5.027 20.486 20.486 0 0 1-3.89 4.202c-1.858 1.56-3.85 2.71-5.98 3.451-2.131.74-4.497 1.111-7.102 1.111-3.229 0-6.145-.565-8.749-1.696-2.604-1.13-4.642-2.72-6.116-4.772-1.474-2.051-2.21-4.337-2.21-6.858 0-1.66.363-3.242 1.09-4.743A10.624 10.624 0 0 1 37.8 19.15c1.303-1.021 2.801-1.711 4.497-2.073v.75c-1.474.422-2.77 1.102-3.891 2.042a9.545 9.545 0 0 0-2.59 3.437 10.405 10.405 0 0 0-.907 4.307c0 2.303.667 4.378 1.998 6.23 1.333 1.85 3.194 3.291 5.587 4.321 2.392 1.03 5.051 1.546 7.978 1.546 2.664 0 5.182-.47 7.554-1.412 2.371-.94 4.42-2.246 6.146-3.916a17.81 17.81 0 0 0 4.027-5.883c.959-2.252 1.438-4.657 1.438-7.219 0-3.462-.989-6.637-2.966-9.528-1.98-2.893-4.684-5.174-8.116-6.845-3.431-1.67-7.216-2.506-11.353-2.506-5.45 0-10.809 1.47-16.078 4.412.304.5.546 1.01.727 1.53.182.521.353 1.243.515 2.161 3.795-1.92 7.459-2.881 10.991-2.881 1.998 0 3.895.355 5.69 1.067 1.798.71 3.363 1.68 4.695 2.91a13.526 13.526 0 0 1 3.118 4.247 11.787 11.787 0 0 1 1.12 5.043c0 1.8-.383 3.471-1.15 5.013-.767 1.54-1.847 2.782-3.24 3.72-1.392.942-2.966 1.512-4.723 1.713v-.66a9.986 9.986 0 0 0 3.967-1.742 8.797 8.797 0 0 0 2.709-3.196c.636-1.27.954-2.657.954-4.157 0-2.201-.642-4.244-1.923-6.124-1.282-1.88-3.002-3.372-5.161-4.472-2.161-1.1-4.532-1.65-7.116-1.65-1.635 0-3.224.224-4.77.675-1.543.45-3.153 1.145-4.828 2.085.08 1.08.12 1.722.12 1.923 0 4.34-1.22 8.453-3.663 12.335-2.443 3.882-5.69 6.989-9.748 9.319-4.058 2.332-8.377 3.497-12.96 3.497-1.372 0-3.028-.17-4.965-.51l.151-.84c1.554.24 2.897.36 4.027.36 3.008 0 5.99-.55 8.947-1.651a26.35 26.35 0 0 0 8.039-4.742 27.708 27.708 0 0 0 4.738-5.403 26.815 26.815 0 0 0 3.09-6.198c.735-2.151 1.103-4.226 1.103-6.228 0-.02-.04-.39-.12-1.11a23.517 23.517 0 0 0-3.861 2.956c-1.201 1.13-2.478 2.545-3.83 4.246-2.3 2.942-4.269 5.804-5.904 8.585l-.666-.42c1.413-2.662 2.876-5.078 4.39-7.248 1.514-2.171 3.059-4.057 4.633-5.658 1.574-1.601 3.209-2.952 4.904-4.053-.222-1.399-.655-2.631-1.301-3.691-2.948 2.1-5.4 4.411-7.358 6.933-.748.941-2.26 3.182-4.541 6.724-2.221 3.522-4.265 6.329-6.132 8.42-1.866 2.09-3.74 3.67-5.616 4.74C4.3 35.453 2.24 36.138 0 36.439v-.78c1.23-.3 2.22-.61 2.966-.931.747-.32 1.514-.79 2.301-1.41 1.273-1.04 2.63-2.522 4.072-4.444 1.443-1.92 3.478-5.092 6.103-9.514 3.006-5.162 7.538-9.545 13.594-13.146-1.252-1.701-2.498-2.946-3.74-3.737-1.242-.79-2.559-1.186-3.95-1.186-1.536 0-2.827.47-3.876 1.41-1.05.942-1.575 2.133-1.575 3.573 0 .92.323 1.86.97 2.821l-.546.36c-1.11-1.02-1.665-2.29-1.665-3.811 0-1.622.62-2.966 1.861-4.038C17.757.535 19.326 0 21.225 0c1.714 0 3.35.47 4.903 1.41 1.556.94 2.978 2.292 4.27 4.052" fill="#B79749" mask="url(#b)"></path></g></svg></svg>