<svg id="Layer_1" data-name="Layer 1" xmlns="http://www.w3.org/2000/svg" width="417.398" height="133.517" viewBox="0 0 313.048 100.136"><defs><style>.cls-1{fill:#4b4f54}</style></defs><path class="cls-1" d="M106.547 94.578c0 2.125-1.125 3.866-5.373 3.866h-5.799V85.169h5.756c3.951 0 5.013 1.508 5.013 3.462a2.901 2.901 0 0 1-2.464 2.868 3.155 3.155 0 0 1 2.867 3.079zm-5.734-6.881h-2.167v3.058h1.997c1.402 0 2.124-.574 2.124-1.572 0-.976-.68-1.486-1.954-1.486zm0 5.161h-2.167v3.059h2.273c1.53 0 2.23-.49 2.23-1.53 0-1.126-.913-1.529-2.336-1.529zm19.432 5.904c-3.462 0-5.841-1.699-5.841-5.437v-8.156h3.355v7.71c0 1.997.808 3.038 2.57 3.038 1.593 0 2.422-.85 2.422-2.91v-7.838h3.356v7.859c0 3.845-2.294 5.734-5.862 5.734zm14.483-.318V85.169h3.377v13.275zm12.126 0V85.169h3.377v10.45h5.565v2.825zm21.747 0h-4.758V85.169h4.992c4.672 0 7.328 2.591 7.328 6.542 0 4.078-2.699 6.733-7.562 6.733zm.022-10.577h-1.403v7.88h1.572c2.443 0 3.972-1.253 3.972-3.908 0-2.74-1.38-3.972-4.141-3.972zm15.629 10.577V85.169h9.707v2.718h-6.393v2.55h5.14v2.697h-5.14v2.591h6.393v2.719zm21.323 0h-3.377V85.169h5.33c3.526 0 5.375 1.635 5.375 4.206a3.895 3.895 0 0 1-2.719 3.823l3.399 5.246h-3.802l-2.656-4.46-1.55.127zm1.636-6.882c1.444-.106 2.23-.701 2.23-1.975 0-1.168-.808-1.742-2.507-1.742h-1.423v3.76zm20.578 3.165c0-.892-.956-1.19-2.72-1.679-1.932-.53-4.27-1.422-4.27-4.078 0-2.463 1.807-4.098 5.099-4.098a10.1 10.1 0 0 1 4.97 1.168l-.658 2.782a9.865 9.865 0 0 0-4.29-1.168c-1.169 0-1.743.403-1.743 1.126 0 .87 1.21 1.21 2.805 1.656 2.039.553 4.162 1.488 4.162 4.015s-1.953 4.311-5.438 4.311a10.909 10.909 0 0 1-5.118-1.21l.637-2.804a9.868 9.868 0 0 0 4.546 1.232c1.19 0 2.018-.446 2.018-1.253z"/><path fill="#9d162e" d="M123.406 63.267h79.131v2.049h-79.131z"/><path class="cls-1" d="M20.961 67.372c1.65-.629 1.693-1.883.87-4.044L10.065 32.44l-4.494 1.712-1.083-2.844 14.448-5.504 1.084 2.845-2.39.91c-1.65.628-1.635 1.86-.812 4.022l11.7 30.718 10.126-3.857c1.82-.693 3.313-2.76 1.731-6.913l-.888-2.332 3.015-1.148 4.117 10.808-26.964 10.27-1.083-2.844z"/><path class="cls-1" d="M19.568 71.319l-1.19-3.124 2.53-.964c1.45-.553 1.655-1.56.782-3.85L9.978 32.633l-4.494 1.711-1.19-3.124 14.73-5.61 1.19 3.124-2.53.964c-1.426.543-1.61 1.51-.726 3.829l11.648 30.577L38.59 60.3c2.298-.875 2.913-3.387 1.644-6.719l-.942-2.472 3.295-1.255 4.224 11.088-.14.053zm-.803-2.95l.977 2.563 26.683-10.164-4.01-10.527-2.735 1.042.835 2.191c1.98 5.199-.89 6.754-1.818 7.108L28.432 64.49 16.678 33.633c-.796-2.088-.923-3.522.9-4.215l2.249-.857-.977-2.564-14.17 5.397.977 2.564 4.494-1.712.053.14L21.97 63.274c.773 2.03.907 3.527-.957 4.238zm38.377-13.714c1.717-.405 1.925-1.642 1.394-3.893l-7.598-32.165-4.68 1.106-.7-2.962 28.967-6.842L77 20.383l-3.14.742-.391-1.66c-1.022-4.323-3.417-5.196-5.845-4.622l-10.9 2.575 3.709 15.697 9.18-2.17-1.118-4.738 3.14-.742 2.98 12.618-3.14.741-1.12-4.738-9.18 2.168 3.861 16.349 11.492-2.715c2.25-.531 4.061-2.397 3.04-6.721l-.49-2.074 3.139-.741 2.575 10.899-29.44 6.954-.7-2.962z"/><path class="cls-1" d="M55.242 58.385l-.769-3.254 2.634-.622a1.73 1.73 0 0 0 1.432-1.154 5.13 5.13 0 0 0-.15-2.56l-7.562-32.017-4.68 1.105-.769-3.253.146-.035 29.112-6.877 2.546 10.777-3.431.81-.427-1.804a6.44 6.44 0 0 0-2.332-4.058 4.096 4.096 0 0 0-3.332-.454l-10.754 2.54 3.639 15.405 8.89-2.1-1.12-4.738 3.432-.811 3.049 12.909-3.431.811-1.12-4.739-8.889 2.1 3.792 16.056 11.346-2.68c1.583-.374 4.068-1.72 2.929-6.54l-.524-2.22 3.43-.81 2.645 11.19-.146.034zm-.408-3.03l.63 2.67 29.148-6.886-2.505-10.607-2.847.673.455 1.927c1.199 5.075-1.46 6.502-3.152 6.902l-11.637 2.749-3.931-16.64 9.473-2.238 1.12 4.739 2.847-.672-2.911-12.326-2.848.673 1.12 4.738-9.474 2.239-.034-.146-3.743-15.844 11.045-2.61a4.383 4.383 0 0 1 3.568.497 6.718 6.718 0 0 1 2.457 4.238l.358 1.513 2.847-.672-2.407-10.193-28.674 6.773.63 2.67 4.68-1.105.035.146 7.598 32.164a5.309 5.309 0 0 1 .143 2.718 2.026 2.026 0 0 1-1.649 1.355zm51.923-50.972a18.327 18.327 0 0 1 14.022 3.788l.843 6.827-5.013.619-.09-.725c-.896-7.25-6.346-7.68-9.608-7.277-8.457 1.045-11.002 11.724-9.928 20.423 1.231 9.967 5.523 17.901 13.98 16.857 3.685-.456 8.337-1.521 7.74-6.354l-1.06-8.578-4.651.575-.373-3.02 14.196-1.754.373 3.02-1.813.224c-1.51.186-1.987 1.288-1.703 3.584l1.156 9.363c-3.055 3.076-7.973 5.462-13.712 6.171-10.27 1.269-18.514-3.908-20.416-19.312-1.663-13.471 4.338-22.983 16.057-24.43z"/><path class="cls-1" d="M108.202 48.462a15.689 15.689 0 0 1-10.528-3.625c-3.818-3.262-6.214-8.646-7.122-16.004-1.696-13.73 4.506-23.156 16.186-24.598a18.563 18.563 0 0 1 14.134 3.819l.048.038.008.061.862 6.975-5.312.656-.108-.873c-.88-7.125-6.294-7.534-9.44-7.147-7.953.982-10.949 10.933-9.798 20.256 1.426 11.537 6.465 17.638 13.813 16.726a14.403 14.403 0 0 0 5.418-1.515 4.352 4.352 0 0 0 2.192-4.671l-1.04-8.43-4.652.575-.41-3.318 14.494-1.79.41 3.318-1.961.242a1.61 1.61 0 0 0-1.408.916 4.79 4.79 0 0 0-.166 2.5l1.165 9.437-.051.05c-3.244 3.267-8.273 5.533-13.8 6.215a24.005 24.005 0 0 1-2.934.187zm-1.445-44.079l.018.15C95.28 5.952 89.177 15.25 90.85 28.795c.899 7.281 3.26 12.601 7.019 15.813 3.395 2.9 7.847 4.033 13.23 3.368 5.432-.67 10.374-2.884 13.573-6.076l-1.148-9.29a4.988 4.988 0 0 1 .192-2.665 1.907 1.907 0 0 1 1.642-1.087l1.664-.205-.336-2.723-13.898 1.717.336 2.722 4.65-.574 1.079 8.727a4.68 4.68 0 0 1-2.336 4.966 14.675 14.675 0 0 1-5.535 1.555c-7.545.938-12.699-5.26-14.147-16.987-1.17-9.47 1.91-19.584 10.058-20.59 3.26-.4 8.863.025 9.775 7.407l.071.576 4.716-.582-.817-6.617a18.267 18.267 0 0 0-13.862-3.718zm32.63 37.191c1.765-.022 2.234-1.489 2.205-3.802l-.41-32.746-4.809.06-.038-3.044 10.774-.135 18.813 29.35c1.364 1.992 2.555 4.717 3.365 6.168l.243-.003c-.145-1.886-.305-4.867-.322-6.327l-.285-22.643c-.029-2.313-.473-3.768-2.238-3.746l-2.556.032-.039-3.043 13.513-.17.038 3.044-2.557.032c-1.764.022-2.173 1.488-2.143 3.8l.448 35.79-5.357.068-19.62-30.618a36.956 36.956 0 0 1-3.175-5.622l-.244.003c.082 1.643.249 5.232.268 6.814l.287 22.887c.03 2.313.474 3.768 2.239 3.746l2.556-.032.038 3.043-13.512.17-.038-3.044z"/><path class="cls-1" d="M136.72 44.802l-.041-3.343 2.706-.035a1.686 1.686 0 0 0 1.644-.96 5.936 5.936 0 0 0 .413-2.69l-.408-32.596-4.809.06-.042-3.344 11.007-.137.045.07 18.812 29.35a39.572 39.572 0 0 1 2.48 4.452c.317.632.593 1.184.84 1.632-.135-1.807-.293-4.707-.31-6.164l-.284-22.643c-.032-2.584-.607-3.598-2.047-3.598h-.039l-2.707.034-.042-3.343 13.813-.174.042 3.344-2.707.033c-1.468.019-2.028 1.042-1.995 3.65l.45 35.94-5.59.07-.045-.07-19.62-30.618a38.034 38.034 0 0 1-3.134-5.522c.056 1.139.239 4.95.26 6.635l.286 22.886a6.225 6.225 0 0 0 .452 2.682 1.646 1.646 0 0 0 1.635.916l2.706-.034.042 3.344zm.262-3.047l.035 2.743 13.213-.165-.035-2.744-2.406.03a1.912 1.912 0 0 1-1.906-1.079 6.488 6.488 0 0 1-.485-2.815l-.287-22.886c-.022-1.788-.227-5.986-.268-6.81l-.008-.155.5-.007.04.092a37.224 37.224 0 0 0 3.163 5.598l19.577 30.552 5.123-.065-.447-35.64c-.025-2.038.235-3.927 2.292-3.953l2.407-.03-.035-2.744-13.211.166.034 2.743 2.406-.03h.041c2.02 0 2.323 1.871 2.35 3.895l.284 22.643c.018 1.5.184 4.532.322 6.317l.012.16-.492.007-.044-.078c-.263-.47-.556-1.057-.896-1.736a39.15 39.15 0 0 0-2.462-4.42L147.027 2.06l-10.54.132.034 2.743 4.809-.06.412 32.897a6.195 6.195 0 0 1-.445 2.83 1.984 1.984 0 0 1-1.908 1.123zm69.168-38.77c11.64 1.046 17.943 10.474 16.767 23.569s-9.12 21.242-20.7 20.201-17.942-10.473-16.766-23.568S194.51 1.94 206.15 2.985zm-.288 3.214c-10.003-.899-13.452 10.28-14.106 17.555-.659 7.335.748 18.89 10.75 19.788s13.447-10.22 14.106-17.555c.653-7.275-.747-18.89-10.75-19.788z"/><path class="cls-1" d="M204.16 46.994q-.96 0-1.956-.09c-11.47-1.03-18.105-10.345-16.903-23.73s9.385-21.362 20.863-20.338a17.526 17.526 0 0 1 13.299 7.33c2.943 4.21 4.189 9.881 3.603 16.401-1.133 12.611-8.468 20.427-18.905 20.427zm.055-43.947c-10.275 0-17.497 7.711-18.615 20.154-1.185 13.204 5.343 22.39 16.631 23.405 11.273 1.009 19.35-6.862 20.536-20.065.58-6.45-.648-12.053-3.55-16.203a17.232 17.232 0 0 0-13.08-7.203 21.388 21.388 0 0 0-1.922-.087zm-.57 40.698q-.566 0-1.152-.053c-4.511-.405-7.707-2.954-9.5-7.576a28.863 28.863 0 0 1-1.386-12.375c.192-2.139.924-7.58 3.568-11.908 2.593-4.244 6.19-6.19 10.7-5.784 4.508.406 7.703 2.962 9.497 7.6 1.83 4.728 1.582 10.213 1.39 12.352a28.888 28.888 0 0 1-3.57 11.93c-2.365 3.862-5.573 5.814-9.548 5.814zm1.09-37.447c-3.867 0-6.994 1.91-9.304 5.691-2.611 4.274-3.335 9.661-3.525 11.778a28.29 28.29 0 0 0 1.367 12.241c1.748 4.506 4.858 6.99 9.247 7.385 4.386.4 7.892-1.495 10.415-5.618a28.302 28.302 0 0 0 3.527-11.801c.19-2.118.438-7.548-1.369-12.217-1.75-4.522-4.86-7.015-9.245-7.409q-.565-.05-1.112-.05zm28.553 40.493c1.731.35 2.437-.689 2.894-2.956l6.537-32.405-4.714-.951.602-2.984 15.158 3.058-.602 2.984-2.506-.506c-1.73-.35-2.377.7-2.835 2.968l-6.501 32.226 10.622 2.143c1.91.386 4.275-.566 5.154-4.922l.494-2.447 3.163.638-2.288 11.338-28.287-5.706.603-2.984z"/><path class="cls-1" d="M258.584 55.152l-.147-.03-28.435-5.736.663-3.277 2.652.535a1.733 1.733 0 0 0 1.784-.45 5.126 5.126 0 0 0 .934-2.389l6.508-32.257-4.714-.952.66-3.277.147.03 15.306 3.088-.662 3.277-2.652-.536c-1.498-.3-2.167.418-2.658 2.851l-6.472 32.08 10.474 2.111a3.392 3.392 0 0 0 2.842-.653 6.789 6.789 0 0 0 2.136-4.151l.524-2.594 3.457.698-.03.147zm-28.228-6l27.993 5.646 2.229-11.043-2.87-.579-.463 2.3A7.077 7.077 0 0 1 255 49.803a3.706 3.706 0 0 1-3.086.712l-10.77-2.173.03-.147 6.5-32.225c.444-2.19 1.104-3.47 3.012-3.086l2.36.477.542-2.69-14.864-2.999-.542 2.69 4.714.951-.03.147-6.536 32.405a5.307 5.307 0 0 1-1.006 2.53 2.03 2.03 0 0 1-2.065.543l-2.36-.476zm38.138 4.818c1.78.628 3.717-.11 5.721-2.5l23.963-28.985 5.683 2.003.568 42.148 4.133 1.457-1.012 2.87-14.982-5.28 1.012-2.87 2.124.748a1.845 1.845 0 0 0 2.43-1.402 6.92 6.92 0 0 0 .246-1.979l.072-5.33-17.106-6.03-3.267 4.14a8.14 8.14 0 0 0-1.306 2.057 1.515 1.515 0 0 0 .963 2.21l2.182.77-1.012 2.87-12.916-4.552 1.012-2.87zm29.864-20.644c.003-1.29.086-3.906.228-5.405l-.288-.101c-.908 1.293-2.5 3.249-3.287 4.197l-11.52 14.01 15.097 5.32z"/><path class="cls-1" d="M307.642 71.154l-15.265-5.38 1.11-3.153 2.266.798a1.51 1.51 0 0 0 1.391-.118 2.295 2.295 0 0 0 .848-1.193 6.714 6.714 0 0 0 .237-1.932l.071-5.222-16.903-5.957-3.2 4.055a8.032 8.032 0 0 0-1.282 2.014 1.78 1.78 0 0 0-.067 1.243 1.446 1.446 0 0 0 .938.777l2.323.818-1.111 3.154-13.2-4.652 1.112-3.153 1.634.575c1.792.636 3.663-.194 5.556-2.455l24.03-29.064 5.88 2.073.002.105.566 42.042 4.176 1.472zM292.76 65.59l14.7 5.18.912-2.586-4.09-1.443-.002-.104-.567-42.043-5.485-1.933-23.896 28.904c-1.985 2.368-3.965 3.22-5.887 2.546l-1.35-.476-.913 2.587 12.633 4.453.912-2.587-2.04-.72a1.724 1.724 0 0 1-1.116-.947 2.055 2.055 0 0 1 .061-1.454 8.229 8.229 0 0 1 1.33-2.1l3.332-4.225.102.036 17.208 6.065v.107l-.073 5.331a6.975 6.975 0 0 1-.255 2.027 2.597 2.597 0 0 1-.967 1.345 1.818 1.818 0 0 1-1.654.149l-1.983-.698zm5.982-14.03l-15.502-5.463.135-.166 11.521-14.009c.519-.625 2.284-2.77 3.28-4.189l.065-.093.505.178-.01.117c-.142 1.498-.224 4.137-.227 5.39zm-14.998-5.604l14.693 5.178-.228-17.809c.002-1.225.082-3.777.217-5.302l-.069-.024c-1.013 1.426-2.72 3.502-3.23 4.114z"/></svg>