<svg id="Layer_1" data-name="Layer 1" xmlns="http://www.w3.org/2000/svg" width="4.3479in" height="1.3908in" viewBox="0 0 313.048 100.1361">
  <defs>
    <style>
      .cls-1 {
        fill: #4b4f54;
      }

      .cls-2 {
        fill: #9d162e;
      }
    </style>
  </defs>
  <title>Logo</title>
  <g>
    <g>
      <path class="cls-1" d="M106.5474,94.5778c0,2.125-1.1255,3.8662-5.3735,3.8662H95.3755V85.1686h5.7559c3.9507,0,5.0127,1.5088,5.0127,3.4619a2.9011,2.9011,0,0,1-2.4639,2.8682A3.1553,3.1553,0,0,1,106.5474,94.5778Zm-5.7344-6.8809h-2.167v3.0586h1.9971c1.4014,0,2.124-.5742,2.124-1.5723C102.7671,88.2067,102.0875,87.6969,100.813,87.6969Zm0,5.1611h-2.167v3.0586h2.2729c1.5293,0,2.23-.4893,2.23-1.5293C103.149,93.2614,102.2359,92.8581,100.813,92.8581Z"/>
      <path class="cls-1" d="M120.2447,98.7624c-3.4619,0-5.8408-1.6992-5.8408-5.4375V85.1686h3.3555v7.71c0,1.9971.8076,3.0381,2.57,3.0381,1.5928,0,2.4214-.85,2.4214-2.91V85.1686h3.356V93.028C126.107,96.8727,123.813,98.7624,120.2447,98.7624Z"/>
      <path class="cls-1" d="M134.7276,98.444V85.1686h3.3774V98.444Z"/>
      <path class="cls-1" d="M146.8541,98.444V85.1686h3.377v10.45h5.5649V98.444Z"/>
      <path class="cls-1" d="M168.6011,98.444h-4.7578V85.1686h4.9912c4.6729,0,7.3281,2.5918,7.3281,6.542C176.1627,95.7887,173.4644,98.444,168.6011,98.444Zm.0215-10.5771H167.22v7.88h1.5723c2.4424,0,3.9717-1.2529,3.9717-3.9082C172.7642,89.0983,171.3834,87.8669,168.6226,87.8669Z"/>
      <path class="cls-1" d="M184.2525,98.444V85.1686h9.7061v2.7188H187.566v2.5488h5.14v2.6982h-5.14v2.5908h6.3926V98.444Z"/>
      <path class="cls-1" d="M205.5748,98.444h-3.377V85.1686h5.3311c3.5254,0,5.374,1.6357,5.374,4.2061a3.8947,3.8947,0,0,1-2.7187,3.8232l3.3984,5.2461h-3.8018l-2.6553-4.46-1.5508.127Zm1.6357-6.8818c1.4443-.1064,2.23-.7012,2.23-1.9756,0-1.168-.8076-1.7412-2.5068-1.7412h-1.4229v3.76Z"/>
      <path class="cls-1" d="M227.7886,94.7272c0-.8926-.9561-1.1895-2.7187-1.6787-1.9326-.53-4.27-1.4229-4.27-4.0781,0-2.4629,1.8057-4.0986,5.0977-4.0986a10.1009,10.1009,0,0,1,4.9707,1.168l-.6582,2.7822a9.8652,9.8652,0,0,0-4.291-1.168c-1.168,0-1.7422.4033-1.7422,1.126,0,.87,1.2109,1.21,2.8047,1.6563,2.0391.5527,4.1621,1.4873,4.1621,4.0146s-1.9531,4.3115-5.4375,4.3115a10.9089,10.9089,0,0,1-5.1182-1.21l.6367-2.8047a9.8681,9.8681,0,0,0,4.5459,1.2324C226.9605,95.98,227.7886,95.5339,227.7886,94.7272Z"/>
    </g>
    <rect class="cls-2" x="123.4063" y="63.2673" width="79.1313" height="2.0488"/>
    <g>
      <g>
        <path class="cls-1" d="M20.961,67.3721c1.6494-.6289,1.6929-1.8828.87-4.0439L10.065,32.4395,5.5713,34.1509,4.4878,31.3067l14.4487-5.5034L20.02,28.6475l-2.3892.91c-1.65.6284-1.6362,1.8608-.813,4.0225L28.5186,64.2979l10.1255-3.8564c1.82-.6934,3.3125-2.7607,1.731-6.9131l-.8882-2.332,3.0146-1.1484,4.1172,10.8076L19.6548,71.126l-1.083-2.8437Z"/>
        <path class="cls-1" d="M19.5679,71.319l-1.1895-3.124,2.5293-.9639c1.45-.5527,1.6548-1.5605.7827-3.85L9.9781,32.633,5.4844,34.3444,4.2945,31.22l14.729-5.61,1.19,3.1245-2.5293.9634c-1.4263.5435-1.6094,1.5093-.7261,3.8291L28.6055,64.1042,38.5909,60.3c2.2983-.875,2.9131-3.3867,1.644-6.7187l-.9414-2.4727,3.2949-1.2549,4.2236,11.0879-.14.0537Zm-.8027-2.95.9766,2.5635L46.4253,60.7682,42.4146,50.2409,39.68,51.2829l.835,2.1914c1.9795,5.1982-.8906,6.7539-1.8179,7.1074L28.4317,64.4909,16.6778,33.6335c-.7954-2.0884-.9224-3.522.9-4.2158l2.249-.8569-.9771-2.564L4.6812,31.3937l.9771,2.564,4.4937-1.7114.0532.14L21.9708,63.2741c.7734,2.03.9067,3.5273-.9565,4.2383Z"/>
      </g>
      <g>
        <path class="cls-1" d="M57.1417,54.6553c1.7178-.4053,1.9258-1.6426,1.394-3.8936L50.938,18.5972l-4.68,1.1055-.7-2.9619L74.5245,9.8985,77.001,20.3828l-3.1392.7417L73.47,19.4658c-1.0215-4.3237-3.4165-5.1968-5.8447-4.623L56.7256,17.4175l3.708,15.6973,9.1812-2.1689-1.1191-4.7388,3.14-.7417,2.98,12.6172-3.1392.7417-1.12-4.7388-9.1812,2.1685,3.8618,16.3486,11.4917-2.7144c2.25-.5317,4.0615-2.3975,3.04-6.7217l-.49-2.0732,3.1392-.7417L84.793,51.251,55.3536,58.2051l-.7-2.9619Z"/>
        <path class="cls-1" d="M55.2422,58.3854l-.769-3.2539,2.6338-.6221a1.7305,1.7305,0,0,0,1.4321-1.1543,5.1308,5.1308,0,0,0-.1494-2.56L50.8267,18.778l-4.68,1.1055L45.378,16.63l.146-.0347,29.1118-6.877,2.5459,10.7764-3.4312.811-.4268-1.8047a6.44,6.44,0,0,0-2.332-4.0581,4.0958,4.0958,0,0,0-3.332-.4536l-10.7534,2.54L60.545,32.9342l8.8892-2.1L68.315,26.0959l3.4316-.811L74.796,38.194l-3.4312.811-1.12-4.7388L61.356,36.3654l3.7925,16.0562,11.3457-2.6787c1.5825-.3745,4.0674-1.7212,2.9287-6.5415l-.5244-2.2192,3.4312-.811,2.644,11.1909-.146.0342Zm-.4077-3.0312.63,2.67,29.1475-6.8848L82.107,40.5324l-2.8472.6724.4551,1.9272c1.1987,5.0747-1.46,6.5024-3.1514,6.9019l-11.6377,2.749-3.9312-16.64,9.4731-2.2378,1.12,4.7388,2.8472-.6724L71.524,25.6462l-2.8477.6724,1.1191,4.7388-9.4731,2.2383-.0347-.146L56.545,17.3063,67.59,14.6969a4.3831,4.3831,0,0,1,3.5679.4961,6.7181,6.7181,0,0,1,2.4575,4.2383l.3574,1.5127,2.8472-.6724L74.4131,10.0793,45.7393,16.8522l.63,2.67,4.68-1.1055.0347.146,7.5977,32.1646a5.3085,5.3085,0,0,1,.1436,2.7178A2.0265,2.0265,0,0,1,57.1763,54.8Z"/>
      </g>
      <g>
        <path class="cls-1" d="M106.7569,4.3833a18.3273,18.3273,0,0,1,14.022,3.7881l.8433,6.8262-5.0137.6191-.09-.7246c-.8955-7.25-6.3457-7.68-9.6079-7.2773C98.4537,8.66,95.9087,19.3389,96.983,28.0381c1.2314,9.9673,5.5234,17.9009,13.98,16.8564,3.6851-.4551,8.3374-1.5205,7.74-6.3535l-1.06-8.5781-4.6514.5747-.373-3.0205,14.1963-1.7534.373,3.0205-1.8125.2236c-1.51.1865-1.9873,1.2881-1.7036,3.584l1.1563,9.3633c-3.0547,3.0762-7.9731,5.4619-13.7119,6.1709-10.27,1.2686-18.5142-3.9077-20.4165-19.312C89.0367,15.3428,95.0377,5.8311,106.7569,4.3833Z"/>
        <path class="cls-1" d="M108.2017,48.4621a15.6889,15.6889,0,0,1-10.5278-3.6255c-3.8174-3.2612-6.2134-8.646-7.1221-16.0039-1.6958-13.73,4.5063-23.1553,16.1865-24.5981h0a18.5632,18.5632,0,0,1,14.1338,3.8193l.0479.0386.0078.0605.8618,6.9751-5.3115.6563-.1084-.8735c-.88-7.1245-6.2935-7.5342-9.44-7.147-7.9531.9824-10.9487,10.9336-9.7974,20.2559,1.4258,11.5376,6.4648,17.6382,13.813,16.7261a14.403,14.403,0,0,0,5.4175-1.5146,4.3516,4.3516,0,0,0,2.1924-4.6714l-1.041-8.4292-4.6514.5747-.41-3.3184,14.4941-1.7905.41,3.3184-1.9614.2422a1.6092,1.6092,0,0,0-1.4072.9155,4.79,4.79,0,0,0-.166,2.501l1.165,9.436-.0513.0513c-3.2437,3.2666-8.2734,5.5317-13.8,6.2144A24.0052,24.0052,0,0,1,108.2017,48.4621ZM106.7569,4.3835l.0186.1489C95.2789,5.9528,89.1763,15.25,90.85,28.7956c.8989,7.2817,3.2607,12.6016,7.019,15.813,3.395,2.9,7.8472,4.0337,13.23,3.3687,5.4321-.6709,10.374-2.8843,13.5728-6.0762l-1.1475-9.2905a4.9883,4.9883,0,0,1,.1919-2.665,1.9074,1.9074,0,0,1,1.6421-1.0864l1.6636-.2051-.3359-2.7227-13.8984,1.7163.3359,2.7227,4.6514-.5747,1.0781,8.7271a4.6806,4.6806,0,0,1-2.3359,4.9658,14.6747,14.6747,0,0,1-5.5347,1.5552c-7.5454.938-12.6992-5.26-14.1479-16.9868-1.1694-9.47,1.91-19.584,10.0581-20.5908,3.26-.3989,8.8638.0254,9.7754,7.4077l.0713.5757,4.7158-.582-.8169-6.6162a18.2675,18.2675,0,0,0-13.8623-3.7187Z"/>
      </g>
      <g>
        <path class="cls-1" d="M139.3873,41.5742c1.7651-.022,2.2339-1.4888,2.2046-3.8018l-.41-32.7466-4.8086.06-.0381-3.0435,10.7734-.1348,18.813,29.35c1.3643,1.9917,2.5557,4.7163,3.3652,6.1675l.2432-.0034c-.1455-1.8853-.3047-4.8662-.3223-6.3271l-.2842-22.6426c-.0293-2.313-.4736-3.7681-2.2383-3.7461l-2.5566.0322L164.09,1.6948l13.5127-.1694.0381,3.0435-2.5566.0317c-1.7646.0225-2.1729,1.4883-2.1436,3.8013l.4482,35.79-5.3564.0674L148.4122,13.6407a36.9564,36.9564,0,0,1-3.1753-5.6221l-.2437.0029c.0815,1.6431.2485,5.2324.2681,6.8149l.2871,22.8862c.0288,2.313.4731,3.7686,2.2383,3.7461l2.5566-.0317.0381,3.0435-13.5127.1694-.0381-3.0435Z"/>
        <path class="cls-1" d="M136.7208,44.8019l-.042-3.3433,2.7065-.0342a1.686,1.686,0,0,0,1.6436-.96,5.9362,5.9362,0,0,0,.4131-2.69l-.4082-32.5967-4.8086.06-.042-3.3433L147.19,1.757l.0449.07,18.8125,29.35a39.572,39.572,0,0,1,2.48,4.4517c.3164.6323.5928,1.1841.8389,1.6323-.1348-1.8066-.292-4.7065-.31-6.1641L168.773,8.4543c-.0322-2.5845-.6074-3.5981-2.0469-3.5981h-.0391L163.98,4.89l-.0415-3.3433,13.813-.1733.042,3.3433-2.707.0337c-1.4687.0186-2.0283,1.042-1.9951,3.6494l.45,35.94-5.59.07-.0449-.07L148.2857,13.7218A38.0339,38.0339,0,0,1,145.1524,8.2c.0557,1.1387.2383,4.95.2588,6.6348l.2871,22.8862a6.2246,6.2246,0,0,0,.4517,2.6821,1.6456,1.6456,0,0,0,1.6348.916l2.7065-.0337.042,3.3433Zm.2617-3.0474.0342,2.7437,13.2129-.1655-.0342-2.7437-2.4067.03a1.9124,1.9124,0,0,1-1.9058-1.0786,6.4883,6.4883,0,0,1-.4844-2.8154l-.2871-22.8862c-.022-1.7881-.2271-5.9858-.2681-6.81l-.0078-.1553.5-.0063.04.0918a37.2245,37.2245,0,0,0,3.1621,5.5977l19.5771,30.5518,5.123-.0645-.4463-35.64c-.0254-2.0376.2344-3.9272,2.292-3.9531l2.4063-.03-.0342-2.7437-13.2119.1655.0342,2.7437,2.4063-.03.041,0c2.0205,0,2.3232,1.8706,2.35,3.8945l.2842,22.6426c.0176,1.5.1836,4.5327.3213,6.3174l.0127.16-.4922.0068-.0439-.0781c-.2627-.47-.5557-1.0566-.8965-1.7354a39.1506,39.1506,0,0,0-2.4619-4.42L147.0269,2.0588l-10.54.1318.0342,2.7437,4.8086-.06.4121,32.8965a6.1946,6.1946,0,0,1-.4453,2.83,1.9836,1.9836,0,0,1-1.9072,1.1235Z"/>
      </g>
      <g>
        <path class="cls-1" d="M206.15,2.9854c11.64,1.0459,17.9434,10.4736,16.7666,23.5684s-9.12,21.2422-20.6992,20.2017S184.275,36.2818,185.4507,23.1875,194.51,1.9395,206.15,2.9854Zm-.2881,3.2134C195.8589,5.3,192.41,16.479,191.7564,23.7539c-.6592,7.3354.7471,18.89,10.75,19.7886s13.4463-10.22,14.1055-17.5552C217.2652,18.7124,215.8648,7.0977,205.8619,6.1988Z"/>
        <path class="cls-1" d="M204.1607,46.9938q-.9609,0-1.957-.0889c-11.47-1.0308-18.1045-10.3457-16.9023-23.73s9.3848-21.3628,20.8623-20.3384a17.5255,17.5255,0,0,1,13.2988,7.3291c2.9434,4.21,4.1895,9.8818,3.6035,16.4019C221.9332,39.1784,214.5982,46.9938,204.1607,46.9938Zm.0547-43.9463c-10.2754,0-17.4971,7.7109-18.6152,20.1533-1.1855,13.2041,5.3428,22.3911,16.6309,23.4053,11.2734,1.0088,19.35-6.8623,20.5361-20.0654.5791-6.4492-.6484-12.0522-3.5508-16.2031a17.2322,17.2322,0,0,0-13.08-7.2026C205.4859,3.0763,204.8443,3.0475,204.2154,3.0475Zm-.5713,40.6973q-.5654,0-1.1514-.0527c-4.5107-.4053-7.707-2.9541-9.499-7.5757a28.8625,28.8625,0,0,1-1.3867-12.3755c.1924-2.1387.9238-7.58,3.5684-11.9077,2.5928-4.2437,6.19-6.1909,10.7-5.7837,4.5078.4053,7.7031,2.9614,9.4971,7.5986,1.83,4.729,1.5811,10.2139,1.3887,12.3525a28.8878,28.8878,0,0,1-3.57,11.9307C210.8267,41.7931,207.6187,43.7448,203.6441,43.7448Zm1.0918-37.4473c-3.8682,0-6.9951,1.9106-9.3047,5.6919-2.6113,4.2734-3.335,9.6606-3.5254,11.7778A28.2909,28.2909,0,0,0,193.273,36.008c1.748,4.5063,4.8584,6.9907,9.2471,7.3853,4.3857.3989,7.8916-1.4951,10.415-5.6187a28.302,28.302,0,0,0,3.5273-11.8008c.19-2.1177.4375-7.5474-1.3691-12.2173-1.75-4.522-4.86-7.0142-9.2451-7.4082Q205.2828,6.2978,204.7359,6.2975Z"/>
      </g>
      <g>
        <path class="cls-1" d="M233.2877,46.791c1.7314.3491,2.4375-.6885,2.8945-2.9561L242.7193,11.43l-4.7139-.9512.6016-2.9839,15.1582,3.0581-.6025,2.9839-2.5059-.5059c-1.73-.3491-2.377.7007-2.835,2.9683l-6.501,32.2256,10.6221,2.1431c1.91.3857,4.2754-.5659,5.1543-4.9224l.4941-2.4468,3.1631.6382-2.2881,11.3384-28.2871-5.7065.6025-2.9839Z"/>
        <path class="cls-1" d="M258.5836,55.152l-.1465-.0293-28.4346-5.7363.6621-3.2778,2.6523.5356a1.7327,1.7327,0,0,0,1.7842-.45,5.1261,5.1261,0,0,0,.9336-2.3887l6.5078-32.2578-4.7139-.9512.6611-3.2778.1465.03,15.3057,3.0879L253.28,13.714l-2.6523-.5356c-1.498-.3-2.167.418-2.6582,2.8511l-6.4717,32.0786L251.9722,50.22a3.3917,3.3917,0,0,0,2.8418-.6533,6.7887,6.7887,0,0,0,2.1357-4.1509l.5244-2.5937,3.457.6978-.0293.147Zm-28.2275-6,27.9932,5.6465,2.2285-11.0439-2.8691-.5786-.4639,2.3A7.0768,7.0768,0,0,1,255,49.8034a3.7058,3.7058,0,0,1-3.0859.7119l-10.77-2.1729.0293-.147,6.501-32.2256c.4434-2.19,1.1035-3.4692,3.0117-3.0854l2.3594.4761.543-2.69L238.7242,7.672l-.542,2.69,4.7139.9512-.0293.147L236.33,43.8649a5.3073,5.3073,0,0,1-1.0059,2.53,2.03,2.03,0,0,1-2.0654.5435l-2.3594-.4761Z"/>
      </g>
      <g>
        <path class="cls-1" d="M268.4937,53.97c1.78.6279,3.7178-.1094,5.7217-2.5l23.9629-28.9849,5.6826,2.0034.5684,42.1475,4.1328,1.457-1.0117,2.87-14.9824-5.28,1.0117-2.87,2.124.748a1.8453,1.8453,0,0,0,2.43-1.4023,6.92,6.92,0,0,0,.2461-1.9785l.0723-5.3311-17.1064-6.0293L278.0787,52.96a8.14,8.14,0,0,0-1.3057,2.0566,1.5153,1.5153,0,0,0,.9629,2.2109l2.1816.7686-1.0117,2.8711L265.99,56.3145l1.0117-2.87Zm29.8643-20.644c.0029-1.29.0859-3.9063.2275-5.4053l-.2871-.1011c-.9082,1.2935-2.5,3.249-3.2871,4.1978L283.4908,46.0264l15.0977,5.3213Z"/>
        <path class="cls-1" d="M307.6421,71.154l-15.2656-5.38,1.1113-3.1533,2.2656.7979a1.51,1.51,0,0,0,1.3906-.1172,2.295,2.295,0,0,0,.8477-1.1934,6.7137,6.7137,0,0,0,.2373-1.9316l.0713-5.2227-16.9033-5.957-3.2,4.0557a8.032,8.032,0,0,0-1.2822,2.0137,1.7793,1.7793,0,0,0-.0664,1.2432,1.4461,1.4461,0,0,0,.9375.7764l2.3232.8184-1.1113,3.1543-13.1992-4.6523,1.1113-3.1533,1.6338.5752c1.792.6357,3.6631-.1943,5.5566-2.4551l24.0293-29.064,5.88,2.0732.002.1045.5664,42.0425,4.1758,1.4717ZM292.7593,65.59l14.6992,5.1807.9121-2.5869-4.09-1.4424-.002-.1045-.5664-42.0425-5.4854-1.9336L274.3306,51.5651c-1.9844,2.3682-3.9648,3.22-5.8867,2.5459l-1.3506-.4756-.9121,2.5869,12.6328,4.4531.9121-2.5879-2.04-.7187a1.7238,1.7238,0,0,1-1.1162-.9482,2.0555,2.0555,0,0,1,.0615-1.4541,8.2285,8.2285,0,0,1,1.3291-2.0986l3.333-4.2256.1016.0356,17.208,6.0649-.001.1074-.0723,5.3311a6.9753,6.9753,0,0,1-.2549,2.0264,2.5967,2.5967,0,0,1-.9668,1.3457,1.818,1.818,0,0,1-1.6543.1484l-1.9824-.6982Zm5.9814-14.03-15.502-5.4634.1357-.1655L294.8951,31.922c.5186-.6245,2.2842-2.77,3.28-4.189l.0654-.0928.5049.1777-.0107.1167c-.1416,1.4985-.2236,4.1377-.2266,5.39Zm-14.998-5.604,14.6934,5.1782-.2285-17.8091c.0029-1.2256.082-3.7773.2178-5.3022l-.0693-.0244c-1.0127,1.4263-2.7207,3.502-3.2295,4.1143Z"/>
      </g>
    </g>
  </g>
</svg>
