<svg width="241" height="77" xmlns="http://www.w3.org/2000/svg" xmlns:xlink="http://www.w3.org/1999/xlink"><defs><path id="a" d="M0 77h241V0H0z"/></defs><g fill="none" fill-rule="evenodd"><path d="M77.38 72.792h-1.745v2.305h1.83c1.232 0 1.798-.368 1.798-1.152 0-.849-.737-1.153-1.882-1.153m0-3.889h-1.746v2.305h1.61c1.127 0 1.71-.432 1.71-1.184 0-.736-.547-1.121-1.574-1.121M82 74.089C82 75.688 81.094 77 77.673 77H73V67h4.637c3.183 0 4.038 1.136 4.038 2.608 0 1.136-.753 1.84-1.985 2.16 1.37.24 2.31 1.089 2.31 2.32M91.49 77C88.83 77 87 75.75 87 73v-6h2.581v5.673c0 1.468.62 2.234 1.977 2.234 1.225 0 1.86-.625 1.86-2.141V67H96v5.782C96 75.609 94.235 77 91.49 77" fill="#231F20"/><mask id="b" fill="#fff"><use xlink:href="#a"/></mask><path fill="#231F20" mask="url(#b)" d="M103 77h3V67h-3zm10 0V67h2.645v7.872H120V77zm16.491-7.968h-1.025v5.936h1.149c1.784 0 2.902-.945 2.902-2.943 0-2.065-1.008-2.993-3.026-2.993M129.475 77H126V67h3.647c3.413 0 5.353 1.953 5.353 4.929C135 75 133.03 77 129.475 77M142 77V67h8v2.048h-5.269v1.92h4.237V73h-4.237v1.952H150V77zm18.963-5.184c1.142-.08 1.763-.528 1.763-1.488 0-.88-.639-1.312-1.982-1.312h-1.124v2.83l1.343-.03zM159.67 77H157V67h4.216c2.787 0 4.248 1.232 4.248 3.168 0 1.344-.74 2.368-2.15 2.88L166 77h-3.005l-2.1-3.361-1.225.096V77zm17.47-2.905c0-.642-.815-.857-2.32-1.208-1.646-.382-3.64-1.025-3.64-2.936 0-1.775 1.541-2.951 4.348-2.951 1.775 0 3.152.335 4.237.84l-.56 2.004c-1.124-.505-2.538-.842-3.66-.842-.995 0-1.485.29-1.485.81 0 .628 1.032.873 2.392 1.193 1.738.399 3.548 1.072 3.548 2.89 0 1.82-1.664 3.105-4.636 3.105-1.683 0-3.313-.367-4.364-.872l.544-2.017c1.123.503 2.48.886 3.876.886 1.014 0 1.72-.321 1.72-.902"/><path d="M13.068 52.092c1.28-.496 1.306-1.465.65-3.13L4.351 25.186l-3.487 1.35L0 24.349 11.213 20l.862 2.19-1.854.718c-1.28.496-1.26 1.45-.605 3.113l9.314 23.646 7.859-3.047c1.413-.546 2.56-2.153 1.301-5.351l-.708-1.795 2.339-.906L33 46.888 12.076 55l-.862-2.19 1.854-.718z" fill="#000" mask="url(#b)"/><path d="M13.068 52.092c1.28-.496 1.306-1.465.65-3.13L4.351 25.186l-3.487 1.35L0 24.349 11.213 20l.862 2.19-1.854.718c-1.28.496-1.26 1.45-.605 3.113l9.314 23.646 7.859-3.047c1.413-.546 2.56-2.153 1.301-5.351l-.708-1.795 2.339-.906L33 46.888 12.076 55l-.862-2.19 1.854-.718z" stroke="#000" stroke-width=".317" mask="url(#b)"/><path d="M40.996 42.206c1.304-.328 1.456-1.3 1.04-3.062l-5.939-25.195-3.55.891L32 12.52 53.986 7l1.936 8.213-2.385.6-.305-1.3c-.8-3.388-2.624-4.06-4.467-3.598l-8.273 2.077 2.897 12.297 6.97-1.75-.875-3.71 2.382-.6 2.33 9.883-2.382.599-.875-3.712-6.969 1.748 3.018 12.808 8.722-2.19c1.708-.43 3.076-1.901 2.277-5.29l-.383-1.623 2.384-.599L62 39.391 39.655 45l-.547-2.32 1.888-.474z" fill="#000" mask="url(#b)"/><path d="M40.996 42.206c1.304-.328 1.456-1.3 1.04-3.062l-5.939-25.195-3.55.891L32 12.52 53.986 7l1.936 8.213-2.385.6-.305-1.3c-.8-3.388-2.624-4.06-4.467-3.598l-8.273 2.077 2.897 12.297 6.97-1.75-.875-3.71 2.382-.6 2.33 9.883-2.382.599-.875-3.712-6.969 1.748 3.018 12.808 8.722-2.19c1.708-.43 3.076-1.901 2.277-5.29l-.383-1.623 2.384-.599L62 39.391 39.655 45l-.547-2.32 1.888-.474z" stroke="#000" stroke-width=".317" mask="url(#b)"/><path d="M80.408 3.13c3.817-.486 7.52.37 10.682 2.9l.652 5.263-3.817.486-.07-.56c-.691-5.589-4.843-5.914-7.325-5.599-6.44.818-8.363 9.056-7.532 15.764.95 7.684 4.23 13.795 10.668 12.979 2.806-.357 6.348-1.185 5.887-4.91l-.819-6.615-3.542.45-.288-2.328 10.808-1.371.288 2.327-1.38.175c-1.15.146-1.512.996-1.293 2.767l.894 7.218c-2.323 2.376-6.064 4.223-10.432 4.778-7.82.992-14.103-2.988-15.575-14.863C66.928 11.605 71.485 4.26 80.408 3.13" fill="#000" mask="url(#b)"/><path d="M80.408 3.13c3.817-.486 7.52.37 10.682 2.9l.652 5.263-3.817.486-.07-.56c-.691-5.589-4.843-5.914-7.325-5.599-6.44.818-8.363 9.056-7.532 15.764.95 7.684 4.23 13.795 10.668 12.979 2.806-.357 6.348-1.185 5.887-4.91l-.819-6.615-3.542.45-.288-2.328 10.808-1.371.288 2.327-1.38.175c-1.15.146-1.512.996-1.293 2.767l.894 7.218c-2.323 2.376-6.064 4.223-10.432 4.778-7.82.992-14.103-2.988-15.575-14.863C66.928 11.605 71.485 4.26 80.408 3.13z" stroke="#000" stroke-width=".317" mask="url(#b)"/><path d="M106.42 30.647c1.367-.021 1.728-1.141 1.702-2.909l-.363-25.013-3.725.054L104 .452l8.345-.117 14.615 22.393c1.058 1.52 1.985 3.6 2.614 4.706l.189-.002c-.115-1.44-.243-3.717-.26-4.832l-.252-17.296c-.024-1.766-.372-2.879-1.738-2.858l-1.98.028L125.5.148 135.964 0 136 2.324l-1.981.03c-1.367.019-1.682 1.139-1.654 2.905l.396 27.339-4.148.06-15.24-23.363c-1.11-1.61-1.981-3.18-2.47-4.29l-.188.003c.066 1.255.2 3.997.217 5.206l.255 17.482c.026 1.766.372 2.877 1.74 2.858l1.98-.029.034 2.326-10.467.149-.033-2.327 1.98-.026z" fill="#000" mask="url(#b)"/><path d="M106.42 30.647c1.367-.021 1.728-1.141 1.702-2.909l-.363-25.013-3.725.054L104 .452l8.345-.117 14.615 22.393c1.058 1.52 1.985 3.6 2.614 4.706l.189-.002c-.115-1.44-.243-3.717-.26-4.832l-.252-17.296c-.024-1.766-.372-2.879-1.738-2.858l-1.98.028L125.5.148 135.964 0 136 2.324l-1.981.03c-1.367.019-1.682 1.139-1.654 2.905l.396 27.339-4.148.06-15.24-23.363c-1.11-1.61-1.981-3.18-2.47-4.29l-.188.003c.066 1.255.2 3.997.217 5.206l.255 17.482c.026 1.766.372 2.877 1.74 2.858l1.98-.029.034 2.326-10.467.149-.033-2.327 1.98-.026z" stroke="#000" stroke-width=".317" mask="url(#b)"/><path d="M158.815 3.557c-7.684-.708-10.35 7.935-10.862 13.561-.515 5.675.549 14.615 8.232 15.324 7.684.71 10.344-7.887 10.86-13.561.512-5.626-.547-14.614-8.23-15.324m.226-2.485c8.94.826 13.77 8.128 12.847 18.256-.922 10.13-7.037 16.422-15.93 15.6-8.894-.82-13.768-8.127-12.847-18.256.922-10.129 6.989-16.424 15.93-15.6" fill="#000" mask="url(#b)"/><path d="M158.815 3.557c-7.684-.708-10.35 7.935-10.862 13.561-.515 5.675.549 14.615 8.232 15.324 7.684.71 10.344-7.887 10.86-13.561.512-5.626-.547-14.614-8.23-15.324zm.226-2.485c8.94.826 13.77 8.128 12.847 18.256-.922 10.13-7.037 16.422-15.93 15.6-8.894-.82-13.768-8.127-12.847-18.256.922-10.129 6.989-16.424 15.93-15.6z" stroke="#000" stroke-width=".317" mask="url(#b)"/><path d="M180.442 35.588c1.358.275 1.914-.533 2.277-2.296l5.18-25.222-3.697-.747L184.68 5l11.887 2.405-.477 2.322-1.965-.398c-1.358-.275-1.867.542-2.23 2.307l-5.151 25.081 8.332 1.684c1.499.305 3.356-.433 4.052-3.823l.39-1.905 2.482.502L200.187 42 178 37.513l.477-2.323 1.965.398z" fill="#000" mask="url(#b)"/><path d="M180.442 35.588c1.358.275 1.914-.533 2.277-2.296l5.18-25.222-3.697-.747L184.68 5l11.887 2.405-.477 2.322-1.965-.398c-1.358-.275-1.867.542-2.23 2.307l-5.151 25.081 8.332 1.684c1.499.305 3.356-.433 4.052-3.823l.39-1.905 2.482.502L200.187 42 178 37.513l.477-2.323 1.965.398z" stroke="#000" stroke-width=".317" mask="url(#b)"/><path d="M233.3 25.485c.012-1.01.093-3.057.212-4.228l-.222-.082c-.715 1.006-1.965 2.526-2.583 3.263l-9.042 10.887 11.696 4.265-.06-14.105zm-23.34 15.958c1.38.503 2.89-.062 4.463-1.92L233.232 17l4.403 1.605.164 32.988L241 52.76l-.804 2.24-11.606-4.232.803-2.238 1.646.598c.934.341 1.592-.23 1.897-1.08.16-.45.192-1.095.204-1.547l.092-4.172-13.252-4.833-2.566 3.22c-.463.59-.851 1.108-1.028 1.6-.29.807-.111 1.43.734 1.738l1.69.616-.805 2.24L208 43.26l.803-2.24 1.156.422z" fill="#000" mask="url(#b)"/><path d="M233.3 25.485c.012-1.01.093-3.057.212-4.228l-.222-.082c-.715 1.006-1.965 2.526-2.583 3.263l-9.042 10.887 11.696 4.265-.06-14.105zm-23.34 15.958c1.38.503 2.89-.062 4.463-1.92L233.232 17l4.403 1.605.164 32.988L241 52.76l-.804 2.24-11.606-4.232.803-2.238 1.646.598c.934.341 1.592-.23 1.897-1.08.16-.45.192-1.095.204-1.547l.092-4.172-13.252-4.833-2.566 3.22c-.463.59-.851 1.108-1.028 1.6-.29.807-.111 1.43.734 1.738l1.69.616-.805 2.24L208 43.26l.803-2.24 1.156.422z" stroke="#000" stroke-width=".317" mask="url(#b)"/><path d="M95 50h62" stroke="#731012" stroke-width="1.296"/></g></svg>