<svg width="198" height="63" xmlns="http://www.w3.org/2000/svg" xmlns:xlink="http://www.w3.org/1999/xlink"><defs><path id="a" d="M0 63h198V0H0z"/></defs><g fill="none" fill-rule="evenodd"><path d="M63.407 59.213H62.05v2.074h1.424c.958 0 1.397-.331 1.397-1.037 0-.763-.573-1.037-1.464-1.037m0-3.5H62.05v2.074h1.25c.877 0 1.33-.388 1.33-1.065 0-.663-.425-1.01-1.224-1.01M67 60.38c0 1.44-.706 2.62-3.367 2.62H60v-9h3.607c2.474 0 3.14 1.022 3.14 2.348 0 1.022-.585 1.655-1.544 1.944 1.066.216 1.797.98 1.797 2.088M75.994 63C73.626 63 72 61.875 72 59.4V54h2.295v5.105c0 1.322.55 2.011 1.756 2.011 1.09 0 1.655-.562 1.655-1.927V54H80v5.204C80 61.749 78.433 63 75.994 63" fill="#FFF"/><mask id="b" fill="#fff"><use xlink:href="#a"/></mask><path fill="#FFF" mask="url(#b)" d="M85 63h2v-9h-2zm8 0v-9h2.266v7.085H99V63zm14.103-7.171h-.91v5.342h1.02c1.586 0 2.58-.85 2.58-2.648 0-1.859-.897-2.694-2.69-2.694M107.09 63H104v-9h3.24c3.036 0 4.76 1.758 4.76 4.436C112 61.2 110.249 63 107.089 63M117 63v-9h6v1.843h-3.952v1.729h3.178V59.4h-3.178v1.757H123V63zm15.082-4.666c.888-.072 1.372-.475 1.372-1.339 0-.791-.496-1.18-1.541-1.18h-.875v2.547l1.044-.028zM131.078 63H129v-9h3.278c2.169 0 3.305 1.109 3.305 2.851 0 1.21-.575 2.131-1.672 2.592L136 63h-2.337l-1.633-3.025-.952.087V63zm14.696-2.615c0-.578-.633-.77-1.803-1.087-1.28-.343-2.83-.923-2.83-2.642 0-1.597 1.197-2.656 3.38-2.656 1.38 0 2.451.301 3.295.756l-.437 1.803c-.873-.454-1.97-.757-2.844-.757-.774 0-1.154.261-1.154.73 0 .564.801.785 1.857 1.073 1.352.358 2.762.964 2.762 2.601 0 1.638-1.296 2.794-3.605 2.794-1.31 0-2.578-.33-3.395-.785l.423-1.815c.873.453 1.929.797 3.014.797.789 0 1.337-.289 1.337-.812M10.692 42.59c1.047-.41 1.068-1.214.53-2.593l-7.663-19.7-2.853 1.12L0 19.601 9.173 16l.706 1.814-1.517.595c-1.047.412-1.031 1.201-.495 2.58L15.49 40.58l6.428-2.524c1.156-.453 2.095-1.784 1.064-4.434l-.577-1.487 1.913-.751L27 38.279 9.881 45l-.706-1.814 1.517-.595zm22.805-7.87c1.087-.267 1.213-1.06.866-2.497l-4.948-20.554-2.959.727L26 10.503 44.32 6l1.614 6.7-1.985.489-.256-1.06c-.664-2.764-2.186-3.311-3.721-2.935l-6.895 1.694 2.415 10.032 5.807-1.428-.73-3.027 1.987-.49 1.942 8.064-1.987.488-.728-3.028-5.808 1.427 2.515 10.448 7.269-1.786c1.424-.351 2.563-1.552 1.898-4.316l-.32-1.324 1.986-.489L51 32.424 32.38 37l-.456-1.893 1.573-.386zM66.635 2.107c3.272-.4 6.446.305 9.157 2.388l.557 4.335-3.271.4-.06-.461c-.592-4.603-4.15-4.87-6.278-4.611-5.52.674-7.168 7.458-6.456 12.982.814 6.327 3.625 11.36 9.144 10.688 2.405-.294 5.44-.976 5.045-4.043l-.702-5.448-3.035.371-.247-1.918 9.265-1.129.246 1.917-1.183.144c-.985.12-1.296.82-1.107 2.279l.765 5.944c-1.99 1.957-5.198 3.478-8.943 3.935-6.701.817-12.088-2.461-13.348-12.24-1.103-8.554 2.803-14.6 10.451-15.533m21.407 23.896c1.153-.017 1.458-.968 1.437-2.468l-.307-21.223-3.144.046L86 .383l7.042-.098 12.33 19c.894 1.289 1.676 3.054 2.207 3.993l.158-.002c-.097-1.222-.204-3.154-.217-4.1L107.307 4.5c-.021-1.5-.314-2.443-1.468-2.426l-1.67.024-.03-1.973L112.971 0 113 1.972l-1.672.025c-1.152.016-1.417.967-1.396 2.466l.337 23.196-3.5.05L93.906 7.887c-.934-1.367-1.67-2.699-2.08-3.64l-.16.002c.054 1.065.167 3.392.183 4.417l.214 14.833c.022 1.5.314 2.441 1.467 2.426l1.672-.025.028 1.973L86.4 28l-.03-1.974 1.67-.023zm43.046-22.897c-6.359-.584-8.565 6.535-8.988 11.168-.428 4.673.453 12.036 6.812 12.62 6.358.585 8.56-6.496 8.988-11.168.423-4.633-.454-12.035-6.812-12.62m.188-2.047c7.398.68 11.395 6.694 10.631 15.034-.763 8.342-5.822 13.525-13.183 12.848-7.36-.676-11.396-6.693-10.632-15.035.762-8.341 5.784-13.525 13.184-12.847m17.76 27.741c1.132.224 1.595-.43 1.896-1.86l4.319-20.45-3.082-.606.397-1.884 9.909 1.95-.399 1.883-1.638-.323c-1.131-.223-1.554.44-1.857 1.87l-4.293 20.337 6.944 1.365c1.247.247 2.795-.351 3.376-3.1l.325-1.545 2.067.408L165.49 34 147 30.362l.398-1.883 1.638.322zm42.664-7.878c.009-.824.076-2.494.175-3.45l-.182-.066c-.585.82-1.607 2.06-2.113 2.662l-7.399 8.881 9.57 3.48-.05-11.507zM172.605 33.94c1.128.41 2.363-.051 3.651-1.567L191.645 14l3.602 1.31.134 26.91 2.619.953-.659 1.827-9.495-3.452.659-1.826 1.346.488c.764.278 1.301-.188 1.552-.881.132-.367.157-.894.166-1.262l.074-3.404-10.841-3.942-2.099 2.626c-.379.482-.696.904-.84 1.306-.238.658-.092 1.165.599 1.417l1.383.503-.659 1.827L171 35.424l.659-1.828.945.345zM78 41h51v-1H78z"/></g></svg>