<?xml version="1.0" encoding="UTF-8"?>
<svg width="71px" height="41px" viewBox="0 0 71 41" version="1.1" xmlns="http://www.w3.org/2000/svg" xmlns:xlink="http://www.w3.org/1999/xlink">
    <!-- Generator: Sketch 48.2 (47327) - http://www.bohemiancoding.com/sketch -->
    <title>Page 1 Copy</title>
    <desc>Created with Sketch.</desc>
    <defs>
        <polygon id="path-1" points="0 0 71 0 71 41 0 41"></polygon>
    </defs>
    <g id="Home" stroke="none" stroke-width="1" fill="none" fill-rule="evenodd" transform="translate(-685.000000, -1221.000000)">
        <g id="Intro" transform="translate(305.000000, 1221.000000)">
            <g id="Page-1-Copy" transform="translate(380.000000, 0.000000)">
                <mask id="mask-2" fill="white">
                    <use xlink:href="#path-1"></use>
                </mask>
                <g id="Clip-2"></g>
                <path d="M30.397612,5.46194865 C32.8401293,4.08192831 35.484065,3.02037419 38.330694,2.27981383 C41.1773229,1.54051721 44.0022803,1.17023703 46.8081156,1.17023703 C51.2482449,1.17023703 55.3263309,2.07003052 59.039824,3.87088124 C62.7533172,5.67299572 65.6751594,8.13352649 67.8053506,11.2550011 C69.9355418,14.3777394 71,17.8176802 71,21.5811423 C71,23.5424899 70.7220935,25.4179022 70.1675554,27.2086429 C69.6117425,28.9993835 68.7945956,30.6751225 67.7148398,32.2358598 C66.6350839,33.7965971 65.3386121,35.1968375 63.8241494,36.4378448 C61.9667654,37.9985821 59.9742526,39.1485991 57.8440614,39.8891594 C55.7138702,40.6297198 53.3478409,41 50.743424,41 C47.514355,41 44.597612,40.4351016 41.9944699,39.3040409 C39.390053,38.1742441 37.3516474,36.5831766 35.8779783,34.5321025 C34.4043092,32.4810283 33.6674746,30.1948957 33.6674746,27.6737047 C33.6674746,26.0131307 34.0307927,24.4321734 34.7574289,22.9308325 C35.484065,21.4307555 36.498806,20.1695281 37.8003771,19.1496779 C39.1032229,18.1285639 40.6011132,17.4385538 42.2965975,17.0771199 L42.2965975,17.8277903 C40.8229284,18.2486207 39.5264566,18.9285208 38.4059072,19.8687544 C37.2853578,20.8115156 36.4235928,21.9564775 35.8167879,23.3061677 C35.2112577,24.655858 34.9091301,26.0927473 34.9091301,27.6130444 C34.9091301,29.9156058 35.5758506,31.9906914 36.9067421,33.8420923 C38.2401831,35.6922294 40.1013915,37.1341738 42.4941916,38.164134 C44.8857169,39.1940943 47.5449502,39.7097063 50.4718916,39.7097063 C53.1362241,39.7097063 55.6539546,39.2395894 58.0263578,38.298092 C60.3974863,37.3578584 62.4460903,36.0523996 64.1721699,34.3817156 C65.8982494,32.7110317 67.2406141,30.7496841 68.1992638,28.4989366 C69.1579136,26.2469254 69.6372385,23.8419998 69.6372385,21.2803686 C69.6372385,17.8176802 68.6479935,14.6431279 66.6707783,11.7516568 C64.6910136,8.8589218 61.9871622,6.57784422 58.5553999,4.90716025 C55.1236377,3.23647628 51.3387557,2.4011343 47.2020289,2.4011343 C41.7522578,2.4011343 36.3929976,3.87088124 31.1242481,6.81290263 C31.4276506,7.31334957 31.6698626,7.82390654 31.8508843,8.3433098 C32.0331807,8.86397682 32.204004,9.58558086 32.3659036,10.5043307 C36.1609839,8.58468699 39.8247599,7.62296952 43.3572313,7.62296952 C45.3548433,7.62296952 47.2517461,7.97808464 49.0479397,8.68957865 C50.845408,9.3998089 52.4095879,10.3703727 53.7417542,11.6000062 C55.0739205,12.8309034 56.1128827,14.2463089 56.8599156,15.8474864 C57.6069486,17.4486638 57.980465,19.1294578 57.980465,20.8898684 C57.980465,22.6907191 57.5967502,24.3614031 56.8293204,25.903184 C56.0631655,27.4437013 54.9834096,28.6847086 53.590053,29.6236785 C52.1979711,30.5651758 50.6235928,31.1351293 48.866918,31.3360663 L48.866918,30.6751225 C50.3405871,30.3743489 51.662555,29.7942854 52.8340964,28.9336683 C54.004363,28.074315 54.9081964,27.0089696 55.543047,25.7376322 C56.1791723,24.4675585 56.4965975,23.0812194 56.4965975,21.5811423 C56.4965975,19.3796813 55.855373,17.3374534 54.5741988,15.4569861 C53.2917497,13.5765188 51.5720442,12.085288 49.4125325,10.9845575 C47.2517461,9.88509077 44.8806176,9.33409364 42.2965975,9.33409364 C40.6623036,9.33409364 39.0726277,9.55904201 37.5275698,10.0102025 C35.9837867,10.4600993 34.373714,11.1551644 32.6986264,12.0953981 C32.7789389,13.1759085 32.8197325,13.8166322 32.8197325,14.0175693 C32.8197325,18.3585673 31.5984738,22.4708258 29.1559565,26.3530808 C26.7134393,30.2353358 23.4652482,33.3416453 19.407559,35.6720094 C15.3498698,38.0036371 11.0308466,39.1688192 6.44793967,39.1688192 C5.0762546,39.1688192 3.42028907,38.999476 1.48259269,38.6595259 L1.63429392,37.8191289 C3.18827543,38.0592424 4.53064009,38.1792991 5.66138792,38.1792991 C8.66864171,38.1792991 11.6503995,37.6283019 14.6079361,36.5275714 C17.5654727,35.4281047 20.2451028,33.8471473 22.6468265,31.7859631 C24.4838136,30.1645655 26.0632911,28.3637148 27.385259,26.3834109 C28.7072269,24.4018432 29.7359907,22.3368677 30.4741,20.1846932 C31.2096598,18.0337823 31.578077,15.9586968 31.578077,13.956909 C31.578077,13.936689 31.5385582,13.5664088 31.4582458,12.8460685 C30.0840111,13.6864655 28.7977377,14.6721943 27.5968758,15.8032549 C26.396014,16.9330518 25.1186642,18.3484573 23.7673759,20.0494714 C21.4663614,22.9914928 19.4980698,25.8526339 17.8625011,28.6341584 L17.1970554,28.213328 C18.6095341,25.5518602 20.0730048,23.1355608 21.5874675,20.9656937 C23.1006554,18.7945628 24.6457133,16.9090405 26.2200916,15.307863 C27.7944699,13.7066856 29.4287638,12.3557316 31.1242481,11.2550011 C30.9024329,9.85602441 30.4690008,8.62386339 29.8226771,7.56357304 C26.8753389,9.66393367 24.4226232,11.9753414 22.46453,14.4965324 C21.7174971,15.4380298 20.2043092,17.6786672 17.9236915,21.2209722 C15.7029895,24.7430571 13.6594847,27.5498567 11.7919023,29.6401073 C9.92559476,31.7303579 8.05291319,33.3113152 6.17640722,34.3817156 C4.29862645,35.452116 2.23982404,36.1370712 0,36.4378448 L0,35.6581081 C1.23018224,35.3573344 2.21942724,35.0477145 2.96646018,34.7267207 C3.71349313,34.4069907 4.47964808,33.9368739 5.26747464,33.3163702 C6.53972529,32.2763 7.89738756,30.7951792 9.33918664,28.873008 C10.7822605,26.9533644 12.8168417,23.7813396 15.4416554,19.3594612 C18.4476344,14.1970225 22.9795493,9.8143205 29.0361253,6.21261905 C27.7842715,4.51160497 26.5375168,3.2668064 25.2958614,2.47569584 C24.0542059,1.68584903 22.7373373,1.29029375 21.3452554,1.29029375 C19.8103959,1.29029375 18.5190233,1.76041057 17.4698626,2.70064421 C16.4194272,3.6421416 15.8954843,4.83259871 15.8954843,6.27327929 C15.8954843,7.19329285 16.2180088,8.13352649 16.8643325,9.09398021 L16.318718,9.45415036 C15.208367,8.43430016 14.6538289,7.16422649 14.6538289,5.6426656 C14.6538289,4.02126807 15.2746566,2.67663286 16.5150373,1.60496871 C17.7566927,0.535832075 19.3259718,0 21.2241494,0 C22.9387557,0 24.5743244,0.47011682 26.128306,1.41035046 C27.6835623,2.3505841 29.1062393,3.70153808 30.397612,5.46194865" id="Fill-1" fill="#B79749" mask="url(#mask-2)"></path>
            </g>
        </g>
    </g>
</svg>